<svg xmlns="http://www.w3.org/2000/svg" viewBox="0 0 16 16" shape-rendering="crispEdges">
<title>Railroad Route</title>
<rect x="1" y="0" width="14" height="1" fill="#2c1b10"/>
<rect x="0" y="1" width="1" height="1" fill="#2c1b10"/>
<rect x="1" y="1" width="14" height="1" fill="#6b4b2f"/>
<rect x="15" y="1" width="1" height="1" fill="#2c1b10"/>
<rect x="0" y="2" width="1" height="1" fill="#2c1b10"/>
<rect x="1" y="2" width="2" height="1" fill="#6b4b2f"/>
<rect x="3" y="2" width="10" height="1" fill="#1a1410"/>
<rect x="13" y="2" width="2" height="1" fill="#6b4b2f"/>
<rect x="15" y="2" width="1" height="1" fill="#2c1b10"/>
<rect x="0" y="3" width="1" height="1" fill="#2c1b10"/>
<rect x="1" y="3" width="2" height="1" fill="#6b4b2f"/>
<rect x="3" y="3" width="1" height="1" fill="#1a1410"/>
<rect x="4" y="3" width="1" height="1" fill="#f2cf72"/>
<rect x="5" y="3" width="2" height="1" fill="#d9a441"/>
<rect x="7" y="3" width="1" height="1" fill="#1a1410"/>
<rect x="8" y="3" width="1" height="1" fill="#f2cf72"/>
<rect x="9" y="3" width="1" height="1" fill="#d9a441"/>
<rect x="10" y="3" width="3" height="1" fill="#1a1410"/>
<rect x="13" y="3" width="2" height="1" fill="#6b4b2f"/>
<rect x="15" y="3" width="1" height="1" fill="#2c1b10"/>
<rect x="0" y="4" width="1" height="1" fill="#2c1b10"/>
<rect x="1" y="4" width="2" height="1" fill="#6b4b2f"/>
<rect x="3" y="4" width="1" height="1" fill="#1a1410"/>
<rect x="4" y="4" width="2" height="1" fill="#d9a441"/>
<rect x="6" y="4" width="2" height="1" fill="#8a6424"/>
<rect x="8" y="4" width="2" height="1" fill="#d9a441"/>
<rect x="10" y="4" width="1" height="1" fill="#1a1410"/>
<rect x="11" y="4" width="1" height="1" fill="#8a6424"/>
<rect x="12" y="4" width="1" height="1" fill="#1a1410"/>
<rect x="13" y="4" width="2" height="1" fill="#6b4b2f"/>
<rect x="15" y="4" width="1" height="1" fill="#2c1b10"/>
<rect x="0" y="5" width="1" height="1" fill="#2c1b10"/>
<rect x="1" y="5" width="14" height="1" fill="#1a1410"/>
<rect x="15" y="5" width="1" height="1" fill="#2c1b10"/>
<rect x="0" y="6" width="1" height="1" fill="#2c1b10"/>
<rect x="1" y="6" width="1" height="1" fill="#1a1410"/>
<rect x="2" y="6" width="12" height="1" fill="#8a909a"/>
<rect x="14" y="6" width="1" height="1" fill="#1a1410"/>
<rect x="15" y="6" width="1" height="1" fill="#2c1b10"/>
<rect x="0" y="7" width="1" height="1" fill="#2c1b10"/>
<rect x="1" y="7" width="1" height="1" fill="#1a1410"/>
<rect x="2" y="7" width="1" height="1" fill="#9c6a3c"/>
<rect x="3" y="7" width="11" height="1" fill="#7a4d2b"/>
<rect x="14" y="7" width="1" height="1" fill="#1a1410"/>
<rect x="15" y="7" width="1" height="1" fill="#2c1b10"/>
<rect x="0" y="8" width="1" height="1" fill="#2c1b10"/>
<rect x="1" y="8" width="1" height="1" fill="#6b4b2f"/>
<rect x="2" y="8" width="1" height="1" fill="#1a1410"/>
<rect x="3" y="8" width="10" height="1" fill="#50545c"/>
<rect x="13" y="8" width="1" height="1" fill="#1a1410"/>
<rect x="14" y="8" width="1" height="1" fill="#6b4b2f"/>
<rect x="15" y="8" width="1" height="1" fill="#2c1b10"/>
<rect x="0" y="9" width="1" height="1" fill="#2c1b10"/>
<rect x="1" y="9" width="1" height="1" fill="#6b4b2f"/>
<rect x="2" y="9" width="1" height="1" fill="#1a1410"/>
<rect x="3" y="9" width="1" height="1" fill="#9c6a3c"/>
<rect x="4" y="9" width="9" height="1" fill="#7a4d2b"/>
<rect x="13" y="9" width="1" height="1" fill="#1a1410"/>
<rect x="14" y="9" width="1" height="1" fill="#6b4b2f"/>
<rect x="15" y="9" width="1" height="1" fill="#2c1b10"/>
<rect x="0" y="10" width="1" height="1" fill="#2c1b10"/>
<rect x="1" y="10" width="2" height="1" fill="#6b4b2f"/>
<rect x="3" y="10" width="1" height="1" fill="#1a1410"/>
<rect x="4" y="10" width="8" height="1" fill="#5a3820"/>
<rect x="12" y="10" width="1" height="1" fill="#1a1410"/>
<rect x="13" y="10" width="2" height="1" fill="#6b4b2f"/>
<rect x="15" y="10" width="1" height="1" fill="#2c1b10"/>
<rect x="0" y="11" width="1" height="1" fill="#2c1b10"/>
<rect x="1" y="11" width="2" height="1" fill="#6b4b2f"/>
<rect x="3" y="11" width="10" height="1" fill="#1a1410"/>
<rect x="13" y="11" width="2" height="1" fill="#6b4b2f"/>
<rect x="15" y="11" width="1" height="1" fill="#2c1b10"/>
<rect x="0" y="12" width="1" height="1" fill="#2c1b10"/>
<rect x="1" y="12" width="2" height="1" fill="#6b4b2f"/>
<rect x="3" y="12" width="1" height="1" fill="#1a1410"/>
<rect x="4" y="12" width="1" height="1" fill="#9aa0a8"/>
<rect x="5" y="12" width="1" height="1" fill="#43464d"/>
<rect x="6" y="12" width="1" height="1" fill="#1a1410"/>
<rect x="7" y="12" width="2" height="1" fill="#6b4b2f"/>
<rect x="9" y="12" width="1" height="1" fill="#1a1410"/>
<rect x="10" y="12" width="1" height="1" fill="#9aa0a8"/>
<rect x="11" y="12" width="1" height="1" fill="#43464d"/>
<rect x="12" y="12" width="1" height="1" fill="#1a1410"/>
<rect x="13" y="12" width="2" height="1" fill="#6b4b2f"/>
<rect x="15" y="12" width="1" height="1" fill="#2c1b10"/>
<rect x="0" y="13" width="1" height="1" fill="#2c1b10"/>
<rect x="1" y="13" width="2" height="1" fill="#6b4b2f"/>
<rect x="3" y="13" width="1" height="1" fill="#1a1410"/>
<rect x="4" y="13" width="1" height="1" fill="#43464d"/>
<rect x="5" y="13" width="1" height="1" fill="#9aa0a8"/>
<rect x="6" y="13" width="1" height="1" fill="#1a1410"/>
<rect x="7" y="13" width="2" height="1" fill="#6b4b2f"/>
<rect x="9" y="13" width="1" height="1" fill="#1a1410"/>
<rect x="10" y="13" width="1" height="1" fill="#43464d"/>
<rect x="11" y="13" width="1" height="1" fill="#9aa0a8"/>
<rect x="12" y="13" width="1" height="1" fill="#1a1410"/>
<rect x="13" y="13" width="2" height="1" fill="#6b4b2f"/>
<rect x="15" y="13" width="1" height="1" fill="#2c1b10"/>
<rect x="0" y="14" width="1" height="1" fill="#2c1b10"/>
<rect x="1" y="14" width="3" height="1" fill="#6b4b2f"/>
<rect x="4" y="14" width="2" height="1" fill="#1a1410"/>
<rect x="6" y="14" width="4" height="1" fill="#6b4b2f"/>
<rect x="10" y="14" width="2" height="1" fill="#1a1410"/>
<rect x="12" y="14" width="3" height="1" fill="#6b4b2f"/>
<rect x="15" y="14" width="1" height="1" fill="#2c1b10"/>
<rect x="1" y="15" width="14" height="1" fill="#2c1b10"/>
</svg>
